<?xml version="1.0" encoding="us-ascii" standalone="no"?><svg xmlns="http://www.w3.org/2000/svg" xmlns:xlink="http://www.w3.org/1999/xlink" contentStyleType="text/css" height="523px" preserveAspectRatio="none" style="width:1104px;height:523px;background:#FFFFFF;" version="1.1" viewBox="0 0 1104 523" width="1104px" zoomAndPan="magnify"><defs><filter height="300%" id="fp3o0qwv0pfu8" width="300%" x="-1" y="-1"><feGaussianBlur result="blurOut" stdDeviation="2.0"/><feColorMatrix in="blurOut" result="blurOut2" type="matrix" values="0 0 0 0 0 0 0 0 0 0 0 0 0 0 0 0 0 0 .4 0"/><feOffset dx="4.0" dy="4.0" in="blurOut2" result="blurOut3"/><feBlend in="SourceGraphic" in2="blurOut3" mode="normal"/></filter></defs><g><text fill="#000000" font-family="sans-serif" font-size="14" font-weight="bold" lengthAdjust="spacing" textLength="244" x="427.75" y="27.9951">Messages - Sequence Diagram</text><rect fill="none" filter="url(#fp3o0qwv0pfu8)" height="46.2656" style="stroke:#000000;stroke-width:2.0;" width="641.5" x="449" y="317.3906"/><line style="stroke:#A80036;stroke-width:1.0;stroke-dasharray:5.0,5.0;" x1="46" x2="46" y1="125.5938" y2="438.9219"/><line style="stroke:#A80036;stroke-width:1.0;stroke-dasharray:5.0,5.0;" x1="138" x2="138" y1="125.5938" y2="438.9219"/><line style="stroke:#A80036;stroke-width:1.0;stroke-dasharray:5.0,5.0;" x1="343.5" x2="343.5" y1="125.5938" y2="438.9219"/><line style="stroke:#A80036;stroke-width:1.0;stroke-dasharray:5.0,5.0;" x1="564" x2="564" y1="125.5938" y2="438.9219"/><line style="stroke:#A80036;stroke-width:1.0;stroke-dasharray:5.0,5.0;" x1="871.5" x2="871.5" y1="125.5938" y2="438.9219"/><line style="stroke:#A80036;stroke-width:1.0;stroke-dasharray:5.0,5.0;" x1="1015.5" x2="1015.5" y1="125.5938" y2="438.9219"/><text fill="#000000" font-family="sans-serif" font-size="14" lengthAdjust="spacing" textLength="77" x="5" y="122.292">HttpClient</text><ellipse cx="46.5" cy="52.2969" fill="#FEFECE" filter="url(#fp3o0qwv0pfu8)" rx="8" ry="8" style="stroke:#A80036;stroke-width:2.0;"/><path d="M46.5,60.2969 L46.5,87.2969 M33.5,68.2969 L59.5,68.2969 M46.5,87.2969 L33.5,102.2969 M46.5,87.2969 L59.5,102.2969 " fill="none" filter="url(#fp3o0qwv0pfu8)" style="stroke:#A80036;stroke-width:2.0;"/><text fill="#000000" font-family="sans-serif" font-size="14" lengthAdjust="spacing" textLength="77" x="5" y="450.917">HttpClient</text><ellipse cx="46.5" cy="464.2188" fill="#FEFECE" filter="url(#fp3o0qwv0pfu8)" rx="8" ry="8" style="stroke:#A80036;stroke-width:2.0;"/><path d="M46.5,472.2188 L46.5,499.2188 M33.5,480.2188 L59.5,480.2188 M46.5,499.2188 L33.5,514.2188 M46.5,499.2188 L59.5,514.2188 " fill="none" filter="url(#fp3o0qwv0pfu8)" style="stroke:#A80036;stroke-width:2.0;"/><text fill="#000000" font-family="sans-serif" font-size="14" lengthAdjust="spacing" textLength="74" x="98" y="122.292">IPostRepo</text><path d="M120,73.2969 C120,63.2969 138,63.2969 138,63.2969 C138,63.2969 156,63.2969 156,73.2969 L156,99.2969 C156,109.2969 138,109.2969 138,109.2969 C138,109.2969 120,109.2969 120,99.2969 L120,73.2969 " fill="#FEFECE" filter="url(#fp3o0qwv0pfu8)" style="stroke:#A80036;stroke-width:1.5;"/><path d="M120,73.2969 C120,83.2969 138,83.2969 138,83.2969 C138,83.2969 156,83.2969 156,73.2969 " fill="none" style="stroke:#A80036;stroke-width:1.5;"/><text fill="#000000" font-family="sans-serif" font-size="14" lengthAdjust="spacing" textLength="74" x="98" y="450.917">IPostRepo</text><path d="M120,464.2188 C120,454.2188 138,454.2188 138,454.2188 C138,454.2188 156,454.2188 156,464.2188 L156,490.2188 C156,500.2188 138,500.2188 138,500.2188 C138,500.2188 120,500.2188 120,490.2188 L120,464.2188 " fill="#FEFECE" filter="url(#fp3o0qwv0pfu8)" style="stroke:#A80036;stroke-width:1.5;"/><path d="M120,464.2188 C120,474.2188 138,474.2188 138,474.2188 C138,474.2188 156,474.2188 156,464.2188 " fill="none" style="stroke:#A80036;stroke-width:1.5;"/><rect fill="#FEFECE" filter="url(#fp3o0qwv0pfu8)" height="30.2969" style="stroke:#A80036;stroke-width:1.5;" width="102" x="290.5" y="90.2969"/><text fill="#000000" font-family="sans-serif" font-size="14" lengthAdjust="spacing" textLength="88" x="297.5" y="110.292">PostsRouter</text><rect fill="#FEFECE" filter="url(#fp3o0qwv0pfu8)" height="30.2969" style="stroke:#A80036;stroke-width:1.5;" width="102" x="290.5" y="437.9219"/><text fill="#000000" font-family="sans-serif" font-size="14" lengthAdjust="spacing" textLength="88" x="297.5" y="457.917">PostsRouter</text><rect fill="#FEFECE" filter="url(#fp3o0qwv0pfu8)" height="30.2969" style="stroke:#A80036;stroke-width:1.5;" width="207" x="459" y="90.2969"/><text fill="#000000" font-family="sans-serif" font-size="14" lengthAdjust="spacing" textLength="193" x="466" y="110.292">GetPopularPostsController</text><rect fill="#FEFECE" filter="url(#fp3o0qwv0pfu8)" height="30.2969" style="stroke:#A80036;stroke-width:1.5;" width="207" x="459" y="437.9219"/><text fill="#000000" font-family="sans-serif" font-size="14" lengthAdjust="spacing" textLength="193" x="466" y="457.917">GetPopularPostsController</text><rect fill="#FEFECE" filter="url(#fp3o0qwv0pfu8)" height="30.2969" style="stroke:#A80036;stroke-width:1.5;" width="134" x="802.5" y="90.2969"/><text fill="#000000" font-family="sans-serif" font-size="14" lengthAdjust="spacing" textLength="120" x="809.5" y="110.292">GetPopularPosts</text><rect fill="#FEFECE" filter="url(#fp3o0qwv0pfu8)" height="30.2969" style="stroke:#A80036;stroke-width:1.5;" width="134" x="802.5" y="437.9219"/><text fill="#000000" font-family="sans-serif" font-size="14" lengthAdjust="spacing" textLength="120" x="809.5" y="457.917">GetPopularPosts</text><rect fill="#FEFECE" filter="url(#fp3o0qwv0pfu8)" height="30.2969" style="stroke:#A80036;stroke-width:1.5;" width="126" x="950.5" y="90.2969"/><text fill="#000000" font-family="sans-serif" font-size="14" lengthAdjust="spacing" textLength="112" x="957.5" y="110.292">PostDetailsMap</text><rect fill="#FEFECE" filter="url(#fp3o0qwv0pfu8)" height="30.2969" style="stroke:#A80036;stroke-width:1.5;" width="126" x="950.5" y="437.9219"/><text fill="#000000" font-family="sans-serif" font-size="14" lengthAdjust="spacing" textLength="112" x="957.5" y="457.917">PostDetailsMap</text><polygon fill="#A80036" points="331.5,152.7266,341.5,156.7266,331.5,160.7266,335.5,156.7266" style="stroke:#A80036;stroke-width:1.0;"/><line style="stroke:#A80036;stroke-width:1.0;" x1="46.5" x2="337.5" y1="156.7266" y2="156.7266"/><text fill="#000000" font-family="sans-serif" font-size="13" lengthAdjust="spacing" textLength="121" x="53.5" y="151.6606">GET /posts/popular</text><polygon fill="#A80036" points="552.5,181.8594,562.5,185.8594,552.5,189.8594,556.5,185.8594" style="stroke:#A80036;stroke-width:1.0;"/><line style="stroke:#A80036;stroke-width:1.0;" x1="343.5" x2="558.5" y1="185.8594" y2="185.8594"/><text fill="#000000" font-family="sans-serif" font-size="13" lengthAdjust="spacing" textLength="178" x="350.5" y="180.7935">execute(request, response)</text><polygon fill="#A80036" points="859.5,210.9922,869.5,214.9922,859.5,218.9922,863.5,214.9922" style="stroke:#A80036;stroke-width:1.0;"/><line style="stroke:#A80036;stroke-width:1.0;" x1="564.5" x2="865.5" y1="214.9922" y2="214.9922"/><text fill="#000000" font-family="sans-serif" font-size="13" lengthAdjust="spacing" textLength="283" x="571.5" y="209.9263">execute(dto : GetPopularPostRequestsDTO)</text><polygon fill="#A80036" points="149,240.125,139,244.125,149,248.125,145,244.125" style="stroke:#A80036;stroke-width:1.0;"/><line style="stroke:#A80036;stroke-width:1.0;" x1="143" x2="870.5" y1="244.125" y2="244.125"/><text fill="#000000" font-family="sans-serif" font-size="13" lengthAdjust="spacing" textLength="114" x="155" y="239.0591">getPopularPosts()</text><polygon fill="#A80036" points="859.5,269.2578,869.5,273.2578,859.5,277.2578,863.5,273.2578" style="stroke:#A80036;stroke-width:1.0;"/><line style="stroke:#A80036;stroke-width:1.0;stroke-dasharray:2.0,2.0;" x1="138" x2="865.5" y1="273.2578" y2="273.2578"/><text fill="#000000" font-family="sans-serif" font-size="13" lengthAdjust="spacing" textLength="371" x="145" y="268.1919">Either&lt;AppError.UnexpectedError,Result&lt;PostDetails[]&gt;&gt;</text><polygon fill="#A80036" points="575.5,298.3906,565.5,302.3906,575.5,306.3906,571.5,302.3906" style="stroke:#A80036;stroke-width:1.0;"/><line style="stroke:#A80036;stroke-width:1.0;stroke-dasharray:2.0,2.0;" x1="569.5" x2="870.5" y1="302.3906" y2="302.3906"/><text fill="#000000" font-family="sans-serif" font-size="13" lengthAdjust="spacing" textLength="264" x="581.5" y="297.3247">result =  Result.ok&lt;PostDetails[]&gt;(posts)</text><path d="M449,317.3906 L527,317.3906 L527,324.5234 L517,334.5234 L449,334.5234 L449,317.3906 " fill="#EEEEEE" style="stroke:#000000;stroke-width:1.0;"/><rect fill="none" height="46.2656" style="stroke:#000000;stroke-width:2.0;" width="641.5" x="449" y="317.3906"/><text fill="#000000" font-family="sans-serif" font-size="13" font-weight="bold" lengthAdjust="spacing" textLength="33" x="464" y="330.4575">loop</text><text fill="#000000" font-family="sans-serif" font-size="11" font-weight="bold" lengthAdjust="spacing" textLength="127" x="542" y="329.6011">[for post in result]</text><polygon fill="#A80036" points="1003.5,351.6563,1013.5,355.6563,1003.5,359.6563,1007.5,355.6563" style="stroke:#A80036;stroke-width:1.0;"/><line style="stroke:#A80036;stroke-width:1.0;" x1="564.5" x2="1009.5" y1="355.6563" y2="355.6563"/><text fill="#000000" font-family="sans-serif" font-size="13" lengthAdjust="spacing" textLength="74" x="571.5" y="350.5903">toDto(post)</text><polygon fill="#A80036" points="354.5,387.7891,344.5,391.7891,354.5,395.7891,350.5,391.7891" style="stroke:#A80036;stroke-width:1.0;"/><line style="stroke:#A80036;stroke-width:1.0;stroke-dasharray:2.0,2.0;" x1="348.5" x2="563.5" y1="391.7891" y2="391.7891"/><text fill="#000000" font-family="sans-serif" font-size="13" lengthAdjust="spacing" textLength="197" x="360.5" y="386.7231">GetPopularPostsResponseDTO</text><polygon fill="#A80036" points="57.5,416.9219,47.5,420.9219,57.5,424.9219,53.5,420.9219" style="stroke:#A80036;stroke-width:1.0;"/><line style="stroke:#A80036;stroke-width:1.0;stroke-dasharray:2.0,2.0;" x1="51.5" x2="342.5" y1="420.9219" y2="420.9219"/><text fill="#000000" font-family="sans-serif" font-size="13" lengthAdjust="spacing" textLength="273" x="63.5" y="415.856">200 OK { GetPopularPostsResponseDTO }</text><!--SRC=[XP91ImCn48Nl-HL3JrrejNWijI3TKaLAorfFuY7kZdLfpCJCB1J4_swo5RlhQhq4alVcooHlU5TQyCIeb9HY47fBPDPRP1Z27RvLQ7E4jDHRhrzxIkbSoCErY9kP4gseGej-qenmioQM31qfTPHXE8LupXbLWXx6i9XluDp5ex2wocYlceRWNw2i3qejpCYA9sFgQjnZ7dnz7pjZ6O17TcGP4_LtMPVP81L2iQkMdXted6vM7MwaVJyrL6xRSZzHHtNuwytpKbxGJwwSctjF_kpUujvXBbZK-q66N1cPH7kAeal33u_JQRUFVxxArnYu13W0psZtWzclOqYK8NBm76ADUuZpK1SeW9D_se0jjGit2gL2DJHHQ8jJYNJ7ektDlc8D2RJ78nGsfciC5wCHh6xX_GG0FZu1]--></g></svg>